# xmcd CD database file
#
# Track frame offsets:
#	150
#	20219
#	37630
#	61434
#	82214
#	84466
#	103531
#	119675
#	137776
#	155165
#	175757
#	194584
#	218374
#
# Disc length: 3098 seconds
#
# Revision: 0
# Processed by: cddbd v1.5.1PL2 Copyright (c) Steve Scherf et al.
# Submitted via: CDex 1.51
#
DISCID=b50c180d
DTITLE=Baby Boo - for
DYEAR=2005
DGENRE=Pop
TTITLE0=一歩ずつの勇気
TTITLE1=Fly up
TTITLE2=Baby in Smile
TTITLE3=Melody
TTITLE4=interlude
TTITLE5=傘
TTITLE6=孤独の森
TTITLE7=peace
TTITLE8=星のしずく
TTITLE9=Colors
TTITLE10=beautiful life
TTITLE11=We are〜僕らはここにいる〜
TTITLE12=虹の向こうへ〜over the rainbow〜
EXTD=YEAR: 2005
EXTT0=
EXTT1=
EXTT2=
EXTT3=
EXTT4=
EXTT5=
EXTT6=
EXTT7=
EXTT8=
EXTT9=
EXTT10=
EXTT11=
EXTT12=
PLAYORDER=
